<svg width="610" height="330" viewBox="0 0 610 330" fill="none" xmlns="http://www.w3.org/2000/svg">
<path d="M302.275 130.505C302.922 130.412 302.989 127.094 302.618 127.054C301.296 126.935 300.794 130.73 302.275 130.505Z" stroke="#808080" stroke-miterlimit="10"/>
<path d="M161.904 178.612C162.988 178.216 169.982 179.683 169.982 177.462C169.982 176.034 162.79 174.157 161.904 174.818C161.974 175.769 162.372 176.666 163.028 177.357C163.028 178.057 160.001 177.277 159.736 178.018C159.947 178.382 160.292 178.649 160.698 178.76C161.104 178.871 161.537 178.818 161.904 178.612Z" stroke="#808080" stroke-miterlimit="10"/>
<path d="M225.347 222.344C222.412 222.503 219.583 218.735 216.371 218.286C213.515 217.889 213.343 217.585 210.832 218.616C213.634 217.466 206.31 214.082 206.271 214.068C205.041 213.738 203.785 217.069 202.675 216.593C202.9 216.686 203.997 213.949 202.873 212.918C201.75 211.887 199.753 214.372 199.648 214.306C199.833 214.412 202.781 206.93 199.185 204.973C195.721 202.699 192.879 203.122 189.733 201.549C186.798 200.068 186.533 196.433 182.409 196.697C184.088 196.592 179.157 192.295 180.518 192.837C178.324 191.965 174.08 193.815 171.264 193.181C170.141 192.943 169.413 190.061 167.787 190.061C165.302 190.061 165.976 194.516 165.58 195.349C164.429 197.874 163.967 188.739 165.13 189.479C164.297 188.95 158.52 192.969 157.872 193.445C156.55 194.424 156.048 196.327 154.7 196.724C156.973 196.05 147.429 194.992 149.412 195.746C143.37 193.445 146.133 192.665 144.494 187.338C144.018 185.831 145.591 185.117 144.309 183.742C143.026 182.367 137.937 182.155 136.377 183.16C135.266 183.768 136.522 178.983 137.011 178.48C138.981 176.484 139.655 171.87 136.562 171.764C131.498 171.632 133.997 176.114 130.851 177.674C121.385 182.38 120.962 169.068 121.266 163.476C121.15 163.393 121.026 163.322 120.896 163.264C121.026 163.322 121.15 163.393 121.266 163.476C121.782 153.627 128.881 156.297 134.803 156.984C133.243 156.799 134.565 154.446 136.363 154.34C138.04 154.402 139.693 154.765 141.242 155.411C144.229 156.297 143.476 155.411 145.697 159.179C146.569 160.686 146.913 164.467 148.87 165.088C149.041 165.088 148.764 151.313 149.887 149.661C151.302 147.572 154.686 144.981 155.757 143.606C158.203 140.473 155.85 144.002 156.154 140.367C156.154 139.984 155.175 134.801 156.841 134.801C156.193 134.801 157.41 139.666 157.344 139.706C159.009 138.556 157.925 136.864 158.005 135.555C158.005 134.51 163.398 132.726 163.835 131.774C164.02 131.377 161.257 131.774 161.257 131.695C161.257 130.293 165.593 130.531 166.227 130.095C166.48 128.302 167.106 126.581 168.065 125.045C170.022 123.022 174.9 123.472 176.407 120.378C176.222 120.762 177.055 122.295 178.099 121.991C174.252 123.115 172.414 125.164 177.028 124.477C179.381 124.12 182.951 121.833 184.709 120.511C184.815 120.431 183.903 119.294 184.035 118.501C183.955 119.003 181.126 121.238 180.465 121.145C175.971 120.325 178.112 117.311 176.367 116.148C175.902 116.37 175.387 116.466 174.873 116.426C174.397 114.813 180.307 113.596 174.622 112.856C170.656 112.341 168.739 118.052 166.042 118.052C167.364 118.052 173.327 110.807 176.142 110.12C177.266 109.749 193.13 108.599 191.808 105.096C191.445 104.886 191.069 104.696 190.684 104.528C189.587 103.51 193.553 102.505 189.151 101.989C189.045 101.508 189.005 101.014 189.032 100.522C188.609 100.231 184.167 102.069 184.167 102.055C183.823 100.443 188.278 100.257 188.781 99.4114C188.781 99.4775 179.249 94.8505 180.108 93.7136C181.867 91.4397 181.853 93.978 180.717 90.4482C180.399 89.4832 176.156 83.5342 176.46 83.2565C174.397 85.1206 175.561 89.3642 171.965 89.3774C167.999 89.3774 168.382 84.8297 168.382 82.2254C168.382 81.0752 158.533 78.1404 157.806 78.1669C152.241 78.3123 154.528 78.6692 154.184 83.0847C154.118 83.8382 153.298 86.9714 153.378 87.4209C154.039 90.8448 156.868 91.9421 155.136 96.3311C154.607 97.6531 151.447 98.0365 151.17 98.8165C150.866 99.8609 152.399 100.918 152.161 102.161C152.069 102.664 152.677 107.383 152.36 107.238C150.258 106.246 151.183 108.203 148.83 106.101C146.186 103.734 148.023 100.31 146.477 98.5124C145.869 97.7853 138.188 94.8769 136.482 94.0969C134.237 92.8255 131.606 92.4122 129.079 92.9336C129.753 92.8278 128.445 88.9676 128.154 88.5313C126.488 85.7023 124.69 88.8486 125.695 83.2433C125.946 81.842 132.212 75.113 132.305 75.3113C132.305 75.0337 127.176 73.1168 127.215 73.0243C127.929 71.3189 132.278 76.0649 133.468 72.4823C132.926 74.1348 140.356 70.8694 138.505 69.5342C137.725 68.979 133.362 69.5342 133.627 67.4851C133.455 68.8071 142.973 69.3359 139.192 65.9648C139.06 65.8458 142.656 65.9648 143.383 65.9648C143.886 65.9648 142.061 64.2198 142.18 64.0479C142.722 63.5059 144.626 66.6919 147.125 63.9157C149.055 61.7608 146.12 61.5361 146.001 59.4473C146.001 59.2094 148.975 58.403 147.984 56.9091C147.23 55.7722 143.277 54.4105 141.969 54.8335C141.057 55.1244 142.299 59.5663 139.827 61.0073C139.499 60.6831 139.246 60.2904 139.087 59.8572C138.042 59.9233 140.025 63.7174 138.69 63.096C137.355 62.4747 137.236 59.7778 137.024 59.5928C136.496 59.1301 135.795 57.4247 134.909 56.6315C134.023 55.8383 133.177 59.5795 132.834 59.6456C131.512 59.8836 133.006 56.4067 133.098 56.2481C133.706 55.1112 129.886 55.4813 129.952 55.5474C128.735 54.4898 130.785 53.9082 130.996 53.5777C130.732 54.0007 128.061 49.2283 128.061 49.2547C126.303 45.2887 127.493 49.2547 127.043 44.7467C127.255 46.8487 135.213 41.2434 132.45 40.3312C129.687 39.419 125.629 39.115 125.007 41.3492C124.664 42.6712 124.862 47.6948 124.346 49.7174C124.175 50.3652 122.006 51.4096 122.76 53.9875C123.064 54.9922 128.854 56.301 126.131 58.5087C126.152 58.2293 126.281 57.969 126.491 57.7836C126.701 57.5983 126.975 57.5026 127.255 57.5172C127.334 57.6891 124.294 63.2547 124.611 63.0167C123.376 61.8985 122.211 60.7065 121.121 59.4473C120.962 59.1565 124.994 58.5352 125.206 58.3369C126.766 56.8166 122.919 56.843 122.919 56.6183C122.919 56.182 124.981 56.4464 124.241 55.8779C123.746 55.507 123.182 55.2405 122.581 55.0945C121.98 54.9485 121.356 54.9262 120.747 55.0288C120.137 55.1314 119.555 55.3569 119.035 55.6915C118.515 56.0261 118.069 56.4628 117.723 56.9752C117.009 57.927 123.395 60.3595 115.714 61.351C112.21 61.8005 110.783 60.029 107.782 59.3284C106.896 59.1168 106.936 58.1914 105.336 58.0064C104.781 58.0064 100.973 59.6192 102.137 60.148C102.983 60.5182 106.103 58.3765 106.618 58.9185C104.556 56.6579 104.173 65.2906 102.837 64.5899C102.243 64.2726 102.613 62.1971 100.802 61.6022C98.3163 60.7693 92.6845 63.334 90.8337 61.2981C89.9348 60.3198 93.2001 60.0819 92.9489 59.5002C92.0368 57.385 86.8545 57.2396 85.0169 56.7901C83.1794 56.3406 81.778 55.2963 80.0991 55.1112C78.0764 54.8997 77.3097 56.3406 75.4324 56.3406C75.1548 56.3406 75.8158 53.8288 74.9433 53.6966C74.3412 54.7008 73.5722 55.595 72.6695 56.3406C70.8715 56.2084 71.1095 51.793 68.9679 52.1235C70.4221 51.8987 65.914 55.3227 66.2181 55.1508C64.3039 56.3684 62.3222 57.4763 60.2823 58.469C59.1586 58.4029 66.6147 53.8288 66.6015 54.0007C66.6808 53.1017 60.1501 55.8647 59.423 56.2613C58.6959 56.6579 59.423 55.1112 58.101 55.5607C54.9811 56.6844 57.2021 57.6494 56.4485 58.469C56.7526 58.1518 37.1605 53.8553 35.865 53.7495C33.9481 53.5909 22.0369 52.2424 21.323 51.4228C20.001 49.995 16.6034 51.5153 15.0435 53.2207C13.7876 54.5427 4.46747 56.6447 4.05765 58.6674C3.10581 62.911 13.0076 63.7042 13.7611 66.0177C13.7611 66.2028 2.61667 65.5946 1.38721 68.5295C1.81025 67.5248 4.50713 71.7419 4.78475 71.8477C6.10675 72.3236 12.8754 70.8694 12.9018 70.9091C14.8055 72.7995 10.6676 75.3642 9.64971 76.316C8.42025 77.453 8.32771 75.6154 6.84707 77.5455C5.97509 78.3677 5.04267 79.1234 4.05765 79.8061C4.37493 79.5153 6.30505 83.8382 6.37115 83.8911C7.54773 84.9223 11.1568 84.9091 10.7338 84.486C11.8707 85.6229 10.628 88.0025 11.6856 88.5578C12.3995 88.9412 14.8716 88.6371 16.2333 89.1923C15.017 88.7032 19.9745 87.0375 19.6837 87.8703C19.0095 89.9062 10.8792 99.7683 9.68937 98.4463C11.1171 100.02 25.7781 90.1177 25.7781 87.7778C25.3891 87.4483 24.9403 87.197 24.4561 87.0375C24.1256 86.2046 32.3881 79.3302 32.0973 82.0006C32.0973 81.723 27.1662 85.7683 28.3031 86.8127C28.6469 87.1168 34.1067 85.2263 34.9131 84.909C35.7196 84.5918 32.9301 82.1196 34.9131 81.7627C35.5874 81.6437 38.1917 83.1772 38.2975 83.0847C38.1731 83.0473 38.0422 83.0368 37.9134 83.054C37.7847 83.0712 37.6611 83.1158 37.551 83.1846C37.4409 83.2534 37.3467 83.345 37.2748 83.4532C37.2029 83.5613 37.1549 83.6836 37.1341 83.8118C37.3853 84.605 48.7941 84.1026 49.508 84.7372C49.1643 84.4331 56.8319 91.0563 56.7526 89.2055C56.4267 88.5505 56.3424 87.8014 56.5146 87.0904C60.1633 89.7344 54.8092 90.4747 54.8225 90.316C54.8225 90.5011 57.5987 94.4142 57.4665 94.4539C57.982 94.1763 56.7526 90.9109 57.5854 91.215C57.7727 91.629 57.8501 92.0843 57.8102 92.537C58.7356 93.7268 58.8942 89.893 58.7752 90.1574C58.9735 89.6418 59.0661 95.2074 58.4844 95.1281C57.6383 95.0091 63.3361 94.639 61.6572 95.4586C62.186 95.1942 59.5817 93.6475 61.0226 93.5285C63.2436 93.3434 61.4986 95.4057 60.0179 95.5379C60.0076 96.6234 60.0961 97.7075 60.2823 98.7768C60.7318 99.1073 62.7677 97.1904 63.7988 97.3755C64.83 97.5606 64.6449 101.342 65.2134 102.135C65.6232 102.703 68.4787 105.572 68.8489 106.101C70.6355 107.962 72.6524 109.588 74.8508 110.939C74.6525 110.781 82.3597 117.285 78.1161 117.285C77.9575 117.285 73.5155 105.321 68.5845 108.798C69.6156 108.07 75.1945 116.095 75.5779 117.126C77.6402 123.049 74.2559 129.936 76.5561 136.401C78.1293 140.83 82.2804 143.632 85.083 146.673C86.8007 148.758 88.294 151.018 89.5382 153.415C91.508 156.747 91.9442 157.593 91.5476 159.496C91.5476 159.589 100.431 168.882 100.088 169.134C100.934 168.526 91.2832 151.102 91.5608 151.062C95.0509 150.705 95.355 156.165 96.0028 157.17C97.7875 159.933 101.04 162.458 102.996 165.022C106.341 169.319 106.79 173.827 109.778 176.92C111.761 178.969 116.388 180.754 119.032 181.587C122.522 182.697 126.21 181.653 129.026 184.403C130.348 185.632 132.345 185.725 133.243 186.584C135.716 188.858 136.734 187.721 139.047 190.101C140.607 191.7 141.057 193.168 141.955 194.067C143.436 195.521 145.921 198.284 148.156 198.442C150.39 198.601 149.676 195.983 150.8 196.248C155.77 197.424 154.871 204.087 152.862 208.146C150.694 212.575 147.918 213.341 150.363 217.81C150.535 218.127 147.944 222.331 148.195 223.64C148.671 226.125 154.224 233.489 155.519 236.067C158.005 240.958 161.177 241.46 164.694 245.453C167.906 249.101 166.888 252.063 166.333 257.033C165.527 264.318 165.315 271.483 163.768 278.542C163.147 281.358 157.806 296.019 159.802 298.835C160.715 300.157 161.124 295.147 161.971 294.869C162.817 294.591 161.429 305.802 160.543 305.181C160.08 304.85 161.058 301.545 159.842 302.087C160.953 301.598 157.568 306.754 157.555 306.807C157.687 305.353 159.287 308.578 159.353 309.094C159.459 309.993 161.31 308.499 161.217 309.808C161.349 307.851 155.665 312.055 158.348 311.645C158.792 311.386 159.201 311.071 159.565 310.707C159.961 310.627 156.762 314.051 158.904 314.395C159.327 314.461 159.551 312.2 160.146 312.795C161.402 314.051 157.753 316.761 158.613 317.793C158.785 318.004 160.569 316.986 160.913 317.7C161.019 317.925 159.71 318.943 159.921 319.022C160.635 319.286 162.261 318.321 162.565 319.353C162.87 320.384 159.393 319.432 160.582 321.124C161.032 321.759 163.861 319.075 164.39 320.833C164.244 320.331 161.217 322.42 161.111 322.552C162.336 322.194 163.581 321.907 164.839 321.692C165.104 322.274 160.701 323.98 160.582 323.477C160.715 324.046 163.226 325.619 163.65 325.222C164.337 324.522 162.737 324.865 163.306 324.125C163.702 323.596 167.087 321.719 167.272 321.217C166.973 321.396 166.729 321.653 166.563 321.96C166.398 322.267 166.319 322.613 166.333 322.962C166.839 323.054 167.354 323.08 167.867 323.041C167.444 322.565 166.849 325.262 167.007 325.183C166.795 324.989 166.623 324.755 166.502 324.494C166.382 324.232 166.315 323.95 166.307 323.662C165.553 323.332 165.937 325.249 165.831 325.169C165.754 324.918 165.583 324.707 165.354 324.579C165.125 324.45 164.855 324.416 164.601 324.482C165.223 323.609 163.835 327.126 163.835 325.923C163.835 325.249 165.976 327.893 165.923 327.84C166.213 327.407 166.416 326.922 166.518 326.412C167.658 327.296 168.845 328.117 170.074 328.871C170.735 329.069 169.599 327.324 169.982 327.377C171.727 327.228 173.449 326.873 175.111 326.319C172.732 325.447 169.823 321.217 169.374 321.031C169.017 320.939 167.668 321.23 167.867 320.318C168.065 319.405 169.334 320.635 169.665 320.318C169.995 320 168.171 317.184 168.554 316.352C169.149 315.03 170.193 314.659 170.868 313.43C171.767 311.791 173.988 310.535 174.12 308.71C174.239 307.269 172.044 307.243 172.15 306.833C172.56 305.247 173.578 301.36 175.217 299.298C175.838 298.505 177.954 296.429 177.94 296.416C177.425 295.98 173.379 296.337 175.508 293.124C174.834 294.129 180.333 292.252 180.056 292.41C180.809 291.974 179.95 289.436 180.333 289.026C182.21 287.03 189.124 289.925 189.904 284.597C190.076 283.421 186.837 279.309 186.771 279.388C187.869 278.238 192.985 280.71 195.801 277.723C196.501 276.982 200.005 270.782 199.991 270.967C199.65 271.874 199.207 272.739 198.669 273.545C198.669 272.316 202.781 268.918 203.309 267.49C204.076 265.455 203.151 262.797 204.208 260.88C206.337 257.152 211.109 257.866 213.753 256.201C217.151 254.046 218.129 250.913 219.173 246.947C219.821 244.488 219.173 238.221 220.495 236.252C220.31 236.648 233.742 221.868 225.347 222.344Z" stroke="#808080" stroke-miterlimit="10"/>
<path d="M160.08 174.594C162.023 171.95 140.052 167.217 142.802 171.222C141.48 169.306 151.566 171.87 152.056 172.135C153.695 173.073 157.687 177.806 160.08 174.594Z" stroke="#808080" stroke-miterlimit="10"/>
<path d="M153.074 178.203C153.378 178.771 156.22 179.525 156.511 178.864C156.802 178.203 152.704 177.489 153.074 178.203Z" stroke="#808080" stroke-miterlimit="10"/>
<path d="M172.309 178.361C172.97 179.511 174.952 178.824 175.071 178.361C175.376 177.542 171.634 177.224 172.309 178.361Z" stroke="#808080" stroke-miterlimit="10"/>
<path d="M183.004 319.895C183.902 320.384 185.767 317.925 184.947 317.766C184.127 317.607 182.144 319.432 183.004 319.895Z" stroke="#808080" stroke-miterlimit="10"/>
<path d="M185.198 320.066C185.793 320.384 188.252 319.26 187.961 318.665C187.419 317.436 184.643 319.736 185.198 320.066Z" stroke="#808080" stroke-miterlimit="10"/>
<path d="M131.075 212.575C130.322 213.804 131.816 215.007 132.12 214.465C132.424 213.923 131.829 211.345 131.075 212.575Z" stroke="#808080" stroke-miterlimit="10"/>
<path d="M198.246 55.7854C198.405 52.8241 193.871 54.2651 193.196 54.4634C192.522 54.6617 198.035 59.4077 198.246 55.7854Z" stroke="#808080" stroke-miterlimit="10"/>
<path d="M249.064 53.7627C248.522 54.0932 241.846 53.0489 241.806 53.1678C241.978 52.7184 244.226 50.1405 243.935 50.0347C245.402 50.5899 249.619 55.6003 249.818 50.9601C249.976 48.25 246.01 48.25 245.429 46.0026C245.257 45.3813 250.584 47.7212 249.514 44.4162C248.919 42.539 243.684 45.7382 243.895 43.7288C243.816 44.4294 245.706 41.2698 245.376 41.6268C247.041 39.7892 254.63 46.1216 249.725 39.7628C249.527 39.5116 254.127 39.5909 254.352 38.6523C254.577 37.7137 249.778 37.8459 250.862 36.0083C252.184 33.7609 255.661 37.0262 253.506 32.4257C253.585 32.5843 247.967 30.6674 248.826 29.7817C249.685 28.8959 256.282 29.7817 256.031 28.7637C255.397 26.3577 252.131 28.8959 251.867 26.8336C251.721 25.7628 253.85 26.8336 254.167 26.2784C255.357 24.4011 249.011 25.9214 249.236 26.0933C247.517 24.7713 256.269 16.6145 256.52 16.9583C254.921 14.8166 253.453 18.386 252.316 17.2623C251.179 16.1386 258.649 15.2 258.847 15.0678C259.482 14.6712 254.881 13.7458 254.656 14.0499C255.463 12.7279 266.237 12.8468 266.237 9.87235C266.237 5.90635 256.018 9.7137 254.881 10.0839C253.982 10.3615 252.686 9.19813 252.065 9.43609C250.016 10.2161 248.099 13.5475 245.931 13.8648C248.086 13.5475 250.532 8.33882 247.015 7.71748C246.46 7.62494 240.511 12.014 240.141 10.692C239.85 9.6476 243.723 9.15846 243.631 8.28594C243.446 6.43514 230.992 9.33032 230.966 9.0527C230.781 6.52769 248.311 7.54563 250.069 5.16603C251.047 3.84403 227.78 0.089552 225.678 0.631572C225.149 0.763772 221.99 1.88747 221.633 1.95357C220.905 1.86377 220.171 1.82401 219.438 1.83459C215.472 2.28407 211.625 2.01967 207.672 2.77321C207.183 2.86575 209.391 4.34639 209.364 4.47859C209.338 4.61079 205.901 4.83552 206.377 5.45686C206.271 5.32466 211.242 8.98661 210.898 9.06593C208.109 9.66083 202.966 3.28879 200.19 5.35111C199.502 5.85347 202.239 7.5324 202.239 7.91578C202.239 9.4493 196.634 6.17074 196.792 6.17074C196.382 6.17074 196.541 9.51541 195.748 10.0178C198.167 8.51069 192.76 6.38226 191.914 6.30294C190.999 6.22742 190.082 6.43236 189.287 6.89051C188.491 7.34865 187.853 8.03828 187.459 8.86763C186.203 9.30389 184.352 7.78359 182.726 8.44459C181.563 8.92051 183.757 10.8771 182.144 11.7628C181.708 12.0008 170.405 12.2784 171.912 15.7288C173.049 18.3728 179.157 15.6098 173.737 20.0385C172.256 21.2416 167.973 20.7524 166.109 22.0215C157.45 27.9309 174.12 24.031 173.948 27.3095C173.948 27.6797 165.104 27.6929 165.276 28.5125C165.5 29.7156 171.463 32.4785 173.049 32.624C176.262 32.928 179.342 30.522 183.625 32.624C187.38 34.4351 191.174 38.1499 192.297 42.3407C193.619 47.2453 190.5 47.8666 195.642 47.8666C196.926 49.5975 198.398 51.1804 200.031 52.5862C199.846 52.7316 194.294 50.3916 194.294 51.8062C194.294 55.1112 202.041 52.6919 199.978 58.5881C199.661 59.4606 197.215 58.2179 196.488 60.0026C195.921 61.1826 195.623 62.4741 195.616 63.7835C195.497 66.1631 199.066 74.3595 201.697 78.0082C203.812 80.9034 205.068 81.3529 208.056 82.7013C212.736 84.8033 211.652 85.0677 214.296 81.1546C215.313 79.6211 213.74 78.1404 214.15 76.9506C214.362 76.3293 216.384 76.3425 216.688 75.0073C217.072 73.2887 216.834 70.4464 217.059 69.7193C217.624 69.6552 218.196 69.7324 218.724 69.944C218.949 69.8118 221.857 65.8987 222.201 65.8987C222.419 66.0919 222.561 66.3561 222.602 66.6441C222.643 66.9322 222.581 67.2255 222.426 67.4719C222.994 69.2566 229.67 63.3076 229.803 63.2018C232.354 61.351 231.984 61.232 234.258 60.2273C239.295 58.0725 244.966 56.182 249.064 53.7627Z" stroke="#808080" stroke-miterlimit="10"/>
<path d="M78.6184 33.3114C80.0726 32.5182 80.0726 33.3114 81.1699 32.1613C81.4792 32.719 81.8816 33.2198 82.3597 33.6419C84.0915 33.6419 84.7922 29.9139 85.8762 29.6759C86.9603 29.4379 86.2067 32.9809 88.7053 30.5616C89.6571 29.6495 89.4456 28.8034 90.371 27.7854C90.6222 27.5078 85.083 27.6929 84.3427 27.9441C82.2407 28.6844 78.5391 33.3643 78.6184 33.3114Z" stroke="#808080" stroke-miterlimit="10"/>
<path d="M89.6968 31.8308C87.1982 32.0291 91.0187 33.6551 90.9394 33.2585C89.9147 33.2673 88.9125 33.5602 88.0443 34.1046C87.5948 34.7392 90.5428 34.5012 90.2256 34.6202C89.1416 34.674 88.0977 35.0465 87.2246 35.691C88.8242 38.0309 91.5476 35.81 92.8167 35.0168C92.1557 35.4266 96.7033 36.5503 97.0074 36.0876C96.5711 36.7354 92.3011 37.3303 92.3672 38.0177C92.6051 40.2387 100.894 37.2906 102.124 36.6957C106.235 34.8978 107.412 36.352 105.508 32.7297C105.68 33.0206 101.066 29.8345 100.339 30.2179C98.1972 31.3284 101.661 33.5494 101.145 34.3293C99.9158 36.352 95.7647 32.0555 94.7864 31.8043C92.2614 31.2755 91.7855 31.6721 89.6968 31.8308Z" stroke="#808080" stroke-miterlimit="10"/>
<path d="M117.684 49.4662C120.711 51.7401 124.294 43.2396 122.337 43.1339C122.079 43.3433 121.903 43.6362 121.838 43.962C121.772 44.2877 121.823 44.626 121.98 44.9186C122.192 44.4691 119.495 43.5966 119.548 43.5966C118.966 42.6844 123.395 41.8515 120.526 39.9082C118.398 38.454 118.649 41.1509 118.689 41.1376C119.059 40.9526 112.316 40.3577 114.458 42.2878C115.181 42.4884 115.92 42.6298 116.666 42.7108C119.204 44.9186 112.25 43.7288 112.964 43.5966C110.942 44.0196 117.062 49.0035 117.684 49.4662Z" stroke="#808080" stroke-miterlimit="10"/>
<path d="M75.2605 47.9988C76.1105 48.9194 76.9093 49.8859 77.6533 50.894C79.4777 50.894 81.3946 48.25 82.2935 47.5626C84.6467 45.8043 87.9913 44.0857 90.3709 42.1159C91.2567 41.3888 79.5173 38.0177 77.9838 38.4936C73.066 40.0404 77.3492 38.9828 75.7496 41.6929C75.2473 42.5257 72.6033 46.8883 72.9338 47.2981C73.6553 47.6835 74.4461 47.9217 75.2605 47.9988V47.9988Z" stroke="#808080" stroke-miterlimit="10"/>
<path d="M84.2369 34.5408C85.5589 34.6995 86.8809 33.3907 86.8809 32.6504C86.8809 31.9101 83.5627 34.4615 84.2369 34.5408Z" stroke="#808080" stroke-miterlimit="10"/>
<path d="M163.623 50.894C163.815 50.8941 164.005 50.8555 164.182 50.7805C164.358 50.7055 164.518 50.5955 164.652 50.4573C164.785 50.3191 164.889 50.1554 164.957 49.976C165.026 49.7966 165.058 49.6053 165.051 49.4134C165.368 50.4974 159.406 47.3775 158.864 47.1924C157.542 46.7429 158.374 45.5267 156.22 45.0375C154.752 44.707 152.505 46.8883 152.571 46.9016C150.588 46.2009 151.421 47.047 149.173 47.047C147.521 47.047 150.31 37.9913 143.132 42.3274C138.796 44.9714 142.391 46.2934 142.59 49.0961C142.59 49.5588 139.351 48.131 139.483 46.029C139.602 44.1254 141.982 42.42 141.982 41.217C141.982 38.996 134.169 43.861 133.785 45.6324C133.27 47.9592 136.628 52.6126 138.002 50.7882C137.646 51.2509 134.341 50.352 134.433 51.2245C134.909 55.9969 152.108 53.0224 152.478 53.9875C152.25 53.8389 152.054 53.6449 151.904 53.4174C151.754 53.1899 151.653 52.934 151.606 52.6655C151.844 51.8723 157.661 56.2745 157.7 56.6315C157.032 57.0112 156.465 57.5463 156.048 58.1914C157.158 59.1168 158.388 57.2528 160.238 59.1697C162.327 61.3378 162.288 60.8883 162.79 64.1801C162.896 64.8675 169.109 62.8581 167.985 65.7268C166.862 68.5956 165.209 64.9865 164.39 65.2509C163.57 65.5153 161.442 65.5946 160.305 65.9384C160.39 66.6739 160.624 67.3844 160.992 68.0271C159.234 68.8864 156.378 68.1197 155.03 69.3491C150.072 73.5927 160.318 71.0148 161.732 71.4643C163.147 71.9138 171.713 82.384 173.934 79.3963C174.49 78.6296 170.167 73.9497 169.36 74.1083C172.639 73.1565 177.451 78.5767 175.732 73.0904C174.966 70.6447 169.122 68.7542 171.687 65.7004C172.745 64.3784 177.16 69.8383 177.9 69.8118C177.9 69.8118 182.237 65.2641 182.237 65.2906C182.237 62.25 170.259 60.6107 170.643 57.6626C171.371 57.33 172.156 57.1372 172.956 57.0942C172.428 56.5535 171.752 56.181 171.013 56.0234C170.815 54.2122 172.93 54.3048 169.889 54.3048C172.097 54.3048 166.835 51.9119 166.637 51.8326C166.016 51.6343 163.623 50.894 163.623 50.894Z" stroke="#808080" stroke-miterlimit="10"/>
<path d="M60.7583 100.998C59.3702 101.804 62.4901 105.625 63.323 105.056C63.5741 104.871 62.7942 99.808 60.7583 100.998Z" stroke="#808080" stroke-miterlimit="10"/>
<path d="M110.426 36.1801C110.941 35.5191 109.302 34.131 108.853 35.2812C108.403 36.4313 109.844 36.8544 110.426 36.1801Z" stroke="#808080" stroke-miterlimit="10"/>
<path d="M150.826 80.1631C151.355 80.0706 152.399 78.0215 151.051 78.1008C149.702 78.1801 150.02 80.2821 150.826 80.1631Z" stroke="#808080" stroke-miterlimit="10"/>
<path d="M158.309 62.6863C162.394 61.9327 154.343 58.9846 155.665 60.1216C156.55 60.8487 153.391 63.5852 158.309 62.6863Z" stroke="#808080" stroke-miterlimit="10"/>
<path d="M144.216 78.3519C145.419 79.1716 147.203 76.9638 147.058 76.3028C146.913 75.6419 142.801 77.334 144.216 78.3519Z" stroke="#808080" stroke-miterlimit="10"/>
<path d="M129.872 36.352C130.56 38.4672 147.653 39.3397 149.636 37.8987C157.568 32.1745 132.887 35.0432 133.217 33.1792C133.597 32.6814 134.041 32.2367 134.539 31.8572C135.147 31.0508 121.121 28.2217 122.192 29.8874C125.14 34.3822 127.903 30.1386 129.872 36.352Z" stroke="#808080" stroke-miterlimit="10"/>
<path d="M112.673 54.7278C113.07 54.2122 114.987 55.7854 115.066 54.6485C115.066 53.8421 109.368 49.7835 108.866 48.488C108.585 46.7397 108.457 44.9704 108.482 43.2C109.157 42.5919 109.091 41.878 108.258 41.2831C107.689 41.0842 107.074 41.0558 106.489 41.2015C105.905 41.3471 105.375 41.6603 104.966 42.1027C105.752 42.6573 106.455 43.3205 107.055 44.0725C107.055 43.6891 103.313 42.3407 102.943 43.081C102.414 44.1386 104.649 47.9724 103.935 48.369C103.803 48.369 98.8847 42.843 98.6467 44.0989C99.1692 44.5437 99.6157 45.0706 99.9687 45.6589C99.9687 45.8572 97.2454 45.7382 97.3908 46.1216C95.4211 40.9129 93.795 47.1528 92.0103 45.4738C91.8252 45.2887 95.0773 42.8298 91.2435 42.8298C89.7629 42.8298 85.9555 44.9582 85.4664 46.2009C83.2454 51.4889 88.2294 47.6022 90.3181 49.2151C90.4239 49.2944 85.9027 50.471 85.9027 51.0923C85.9027 53.8685 96.5976 50.8147 96.5976 53.1546C96.5976 53.7231 86.9603 53.1546 87.3436 54.7146C88.3351 59.0243 100.564 58.165 103.049 57.8213C104.348 57.5002 105.677 57.3185 107.015 57.2793C107.848 57.2793 114.696 59.6324 113.876 56.843C113.215 54.6617 111.642 57.504 111.1 56.0234C111.547 55.5057 112.079 55.0677 112.673 54.7278V54.7278Z" stroke="#808080" stroke-miterlimit="10"/>
<path d="M177.015 111.177C177.161 111.825 181.51 113.821 181.656 112.896C181.801 111.97 176.883 110.609 177.015 111.177Z" stroke="#808080" stroke-miterlimit="10"/>
<path d="M133.641 26.6618C132.318 25.9215 130.6 27.4814 132.001 28.0631C133.244 28.5522 135.042 27.4021 133.641 26.6618Z" stroke="#808080" stroke-miterlimit="10"/>
<path d="M122.02 25.6042C130.824 25.6042 120.433 20.6995 119.852 21.6381C119.27 22.5768 120.989 25.6042 122.02 25.6042Z" stroke="#808080" stroke-miterlimit="10"/>
<path d="M122.918 17.4739C122.998 17.4739 129.859 20.6863 129.528 19.6023C129.714 20.1575 126.369 20.9243 126.541 21.1623C128.735 23.5815 132.186 25.1283 135.292 24.2822C135.504 24.2822 141.757 18.6505 141.572 19.6023C141.321 20.9243 136.958 15.1868 136.72 15.0017C136.482 14.8166 127.215 9.95169 126.316 10.6391C126.385 10.8919 126.527 11.1186 126.725 11.2904C126.922 11.4622 127.167 11.5714 127.426 11.6042C127.426 12.1198 125.153 11.7099 124.941 12.133C125.364 12.4679 125.774 12.8116 126.171 13.1641C125.721 14.0367 123.104 12.7411 123.196 14.4861C123.751 15.153 124.452 15.6824 125.245 16.0329C125.298 16.9583 120.288 16.0329 122.918 17.4739Z" stroke="#808080" stroke-miterlimit="10"/>
<path d="M148.962 41.3492C147.072 45.8175 156.59 44.7864 156.59 43.8081C156.59 42.3142 149.504 40.0801 148.962 41.3492Z" stroke="#808080" stroke-miterlimit="10"/>
<path d="M128.088 26.014C127.929 25.5116 122.258 26.2652 123.144 26.9923C124.638 28.2217 128.233 26.5031 128.088 26.014Z" stroke="#808080" stroke-miterlimit="10"/>
<path d="M93.5832 25.9214C93.9666 24.9431 91.1111 25.1018 91.3491 25.4323C91.8647 26.1726 93.2131 26.9129 93.5832 25.9214Z" stroke="#808080" stroke-miterlimit="10"/>
<path d="M126.435 34.8713C125.232 33.8798 121.676 36.2594 122.165 36.6693C124.108 38.3218 130.837 38.4936 126.435 34.8713Z" stroke="#808080" stroke-miterlimit="10"/>
<path d="M109.156 28.301C109.751 27.4814 106.75 24.8638 106.605 26.0933C106.46 27.3228 108.522 29.1735 109.156 28.301Z" stroke="#808080" stroke-miterlimit="10"/>
<path d="M115.74 29.742C113.955 28.9884 116.494 32.386 116.216 32.386C115.388 31.7238 114.413 31.2704 113.374 31.064C112.739 31.5796 114.299 33.1395 113.783 33.3907C112.977 33.7741 111.007 29.9932 109.897 29.9271C107.517 29.7949 110.743 33.3114 110.849 33.3775C112.845 34.5805 114.418 33.6551 116.414 34.1971C116.137 34.1178 118.622 40.5295 120.962 34.8581C122.667 30.6674 117.776 30.5616 115.74 29.742Z" stroke="#808080" stroke-miterlimit="10"/>
<path d="M99.7969 25.5116C101.119 25.3001 94.5089 23.7269 94.5089 26.2519C94.4824 30.5352 99.8101 25.5116 99.7969 25.5116Z" stroke="#808080" stroke-miterlimit="10"/>
<path d="M96.1351 23.9517C96.7432 24.2293 101 24.1764 101 23.3039C101 20.1179 93.9406 23.6476 94.1125 23.793C94.7762 23.9386 95.4568 23.992 96.1351 23.9517V23.9517Z" stroke="#808080" stroke-miterlimit="10"/>
<path d="M118.874 17.5532C119.402 16.5749 115.727 15.7949 116.639 16.6542C117.155 17.1433 118.358 18.5447 118.874 17.5532Z" stroke="#808080" stroke-miterlimit="10"/>
<path d="M108.628 21.4134C109.831 21.0168 110.584 21.4134 110.875 22.5636C110.73 22.9205 108.099 22.8147 108.231 23.0527C108.363 23.2907 122.628 28.9092 115.344 21.7307C114.377 20.8172 113.187 20.1744 111.893 19.8667C105.455 19.0735 109.157 21.03 108.628 21.4134Z" stroke="#808080" stroke-miterlimit="10"/>
<path d="M149.636 73.8439C149.782 72.9846 142.326 67.8817 141.929 67.9346C141.215 68.0271 137.738 72.6938 138.188 74.1744C138.637 75.6551 149.703 73.4473 149.636 73.8439Z" stroke="#808080" stroke-miterlimit="10"/>
<path d="M131.974 9.35679C134.618 7.45311 132.437 10.15 132.464 10.1896C133 10.213 133.532 10.2972 134.05 10.4408C131.062 13.9441 139.629 13.3757 139.589 12.7147C139.973 18.1613 150.509 10.8903 151.778 11.7893C154.21 13.5211 145.38 15.2265 145.591 15.5173C145.591 15.5173 148.433 17.9234 148.076 17.9366C146.397 18.0688 137.619 11.8289 139.1 17.3813C139.444 18.7033 146.345 21.3473 146.345 22.5636C146.345 22.5636 137.646 19.9196 137.434 23.7137C137.302 26.0669 142.233 23.2907 142.286 23.4361C141.519 21.7307 143.053 28.7241 143.053 27.4021C143.053 28.9885 136.311 23.2775 136.588 26.4238C137.204 26.9905 137.868 27.5035 138.571 27.9573C138.571 28.4994 132.781 28.9753 134.143 30.3502C135.702 31.9498 153.298 32.4389 154.184 30.3502C155.07 28.2614 147.574 28.7902 147.244 28.235C148.288 29.8742 153.854 25.2605 154.29 25.0489C157.092 23.5022 158.256 25.776 159.736 21.4002C160.173 20.0782 154.885 20.0782 154.938 20.0782C158.018 17.8969 162.076 18.7562 164.879 17.4342C166.584 16.5881 176.684 11.3662 176.777 10.5995C176.87 9.8327 172.044 10.4012 171.767 10.2822C174.093 11.3001 182.343 5.81382 182.475 5.84026C181.814 5.62874 172.243 2.37663 172.084 4.83555C172.464 4.25713 173 3.79864 173.631 3.51355C171.753 4.25387 162.354 3.7515 161.085 3.8176C156.775 4.04234 152.611 3.24914 148.817 4.29353C148.05 4.50505 130.414 10.2954 130.084 9.58153C130.384 9.7417 130.727 9.80602 131.064 9.76584C131.402 9.72566 131.72 9.58291 131.974 9.35679V9.35679Z" stroke="#808080" stroke-miterlimit="10"/>
<path d="M191.808 107.74C190.217 108.728 188.963 110.175 188.212 111.891C188.027 112.288 184.736 115.593 186.071 116.386C189.098 118.157 191.888 113.742 192.205 117.708C192.099 116.386 196.594 118.197 196.792 117.814C196.713 117.986 195.47 114.376 196.065 114.641C196.871 115.011 190.103 110.331 190.195 111.111C190.435 109.868 190.99 108.707 191.808 107.74V107.74Z" stroke="#808080" stroke-miterlimit="10"/>
<path d="M2.37858 102.452C3.27754 102.042 3.70058 101.54 3.27754 101.051C2.8545 100.562 1.69114 102.796 2.37858 102.452Z" stroke="#808080" stroke-miterlimit="10"/>
<path d="M8.73759 98.7768C7.69321 98.367 6.63561 100.033 6.49019 100.02C6.04072 99.9402 9.74231 99.1867 8.73759 98.7768Z" stroke="#808080" stroke-miterlimit="10"/>
<path d="M26.3995 89.6683C24.6809 91.8363 23.2663 95.9874 26.9283 92.3123C27.4703 91.757 28.2635 87.3283 26.3995 89.6683Z" stroke="#808080" stroke-miterlimit="10"/>
<path d="M3.87277 84.301C3.17211 83.8779 2.66975 84.0762 2.37891 84.8694C2.65673 85.2093 3.02552 85.4631 3.4422 85.6012C3.85887 85.7393 4.30624 85.756 4.73207 85.6494C7.2703 84.724 3.85955 84.1556 3.87277 84.301Z" stroke="#808080" stroke-miterlimit="10"/>
<path d="M292.28 134.392C292.161 133.466 290.443 134.669 290.813 134.934C291.566 135.502 292.413 135.317 292.28 134.392Z" stroke="#808080" stroke-miterlimit="10"/>
<path d="M330.274 143.685C330.274 143.077 325.436 143.685 325.542 143.685C324.92 143.632 330.42 145.272 330.274 143.685Z" stroke="#808080" stroke-miterlimit="10"/>
<path d="M342.926 144.373C343.307 143.823 343.722 143.297 344.169 142.799C342.839 143.071 341.55 143.515 340.335 144.121C339.674 145.391 343.071 145.245 342.926 144.373Z" stroke="#808080" stroke-miterlimit="10"/>
<path d="M260.843 72.3633C266.131 72.0724 261.16 63.995 258.622 65.4757C258.04 65.8062 254.312 67.8817 253.638 67.6834C253.555 67.4288 253.397 67.2052 253.185 67.0423C252.972 66.8795 252.715 66.7849 252.448 66.7712C249.13 70.7372 252.567 65.6343 247.993 65.6343C247.041 65.6343 248.482 66.9563 248.231 66.9563C247.305 66.8505 245.904 66.5729 245.679 68.2783C245.574 69.0318 249.487 68.86 249.341 68.7146C249.196 68.5691 248.958 70.1159 249.09 70.0365C248.984 70.1026 245.957 70.1688 246.221 70.7108C246.314 70.8959 248.984 70.9884 249.447 71.5304C250.293 72.5087 248.535 73.7249 248.35 73.5266C251.549 77.0696 257.419 72.5616 260.843 72.3633Z" stroke="#808080" stroke-miterlimit="10"/>
<path d="M270.744 106.934C275.186 106.934 276.403 103.734 275.966 100.324C275.821 99.1602 278.201 99.0016 275.53 97.5341C274.333 97.5784 273.152 97.8288 272.04 98.2745C271.961 100.654 272.212 98.5521 269.674 99.9402C269.594 100.02 269.647 106.934 270.744 106.934Z" stroke="#808080" stroke-miterlimit="10"/>
<path d="M284.348 84.724C284.772 84.2613 285.274 82.4766 284.626 82.6749C283.978 82.8732 284.177 84.9223 284.348 84.724Z" stroke="#808080" stroke-miterlimit="10"/>
<path d="M275.834 89.0205C275.504 88.6635 274.208 90.673 274.711 90.6598C275.213 90.6466 276.152 89.3774 275.834 89.0205Z" stroke="#808080" stroke-miterlimit="10"/>
<path d="M275.411 91.4794C277.037 90.0517 275.504 96.9657 275.504 96.08C275.504 94.8373 277.645 96.6881 277.407 96.7278C277.876 96.3641 278.215 95.8586 278.372 95.2868C279.126 95.4058 277.883 98.2481 277.896 98.4331C278.042 99.5436 280.752 97.7325 280.911 98.0233C282.695 101.13 279.483 102.426 279.589 104.475C279.12 104.573 278.692 104.812 278.361 105.159C278.031 105.506 277.813 105.945 277.738 106.418C279.104 106.749 280.498 106.953 281.902 107.026C281.995 107.528 276.019 108.758 277.487 110.715C277.487 110.715 288.221 108.361 288.856 107.714C289.49 107.066 287.759 107.476 287.811 107.013C288.102 104.858 289.794 105.863 288.856 103.51C288.049 103.122 287.336 102.562 286.767 101.87C285.564 99.8344 284.388 95.4586 281.479 95.6701C281.479 95.6701 283.356 92.5502 283.158 92.0611C282.338 89.9723 280.792 92.3519 279.628 90.9506C279.232 90.4879 282.021 88.6239 281.201 87.8571C280.633 87.2226 275.53 91.3737 275.411 91.4794Z" stroke="#808080" stroke-miterlimit="10"/>
<path d="M305.989 98.2348C305.672 98.1555 310.22 97.0054 308.052 95.5247C306.201 94.2556 305.804 98.1952 305.989 98.2348Z" stroke="#808080" stroke-miterlimit="10"/>
<path d="M318.086 90.554C317.134 90.554 316.764 92.6163 316.936 92.9601C317.108 93.3038 319.024 90.4747 318.086 90.554Z" stroke="#808080" stroke-miterlimit="10"/>
<path d="M323.374 89.9459C324.042 89.6634 324.639 89.2342 325.119 88.69C326.335 87.3415 321.496 90.0516 323.374 89.9459Z" stroke="#808080" stroke-miterlimit="10"/>
<path d="M324.788 87.5398C324.986 87.13 323.347 87.3151 323.717 87.6853C323.793 87.7553 323.883 87.8078 323.982 87.8388C324.08 87.8698 324.185 87.8787 324.287 87.8648C324.389 87.8509 324.487 87.8146 324.574 87.7584C324.66 87.7022 324.734 87.6276 324.788 87.5398V87.5398Z" stroke="#808080" stroke-miterlimit="10"/>
<path d="M317.464 16.3634C318.879 17.5796 321.642 16.1783 323.4 17.2755C323.334 17.2755 319.87 18.5975 319.883 18.5975C320.743 20.8185 333.103 19.6816 332.27 16.2576C332.165 15.8478 324.206 14.7241 324.523 14.6183C324.284 14.844 324.125 15.1427 324.072 15.4678C324.02 15.793 324.076 16.1264 324.233 16.4162C323.572 16.9054 320.372 14.2746 319.658 14.3671C319.214 14.7937 318.847 15.2948 318.574 15.8478L317.252 14.8563C315.838 14.843 317.252 16.1915 317.464 16.3634Z" stroke="#808080" stroke-miterlimit="10"/>
<path d="M307.099 19.6948C304.561 19.0999 308.421 23.6608 309.029 23.9648C310.206 24.6391 311.145 21.7835 311.991 21.453C312.837 21.1225 311.634 23.013 312.453 22.9601C313.011 22.6158 313.617 22.3573 314.251 22.1934C314.978 23.3303 308.963 25.5248 309.77 25.7363C311.29 26.1197 312.929 25.1282 314.502 25.5116C312.911 25.852 311.357 26.3479 309.862 26.9922C309.717 28.4729 312.506 28.4068 313.194 28.6712C313.126 28.8467 313.015 29.0026 312.872 29.1249C312.729 29.2471 312.558 29.332 312.374 29.3718C311.991 29.8874 314.476 30.1386 314.873 29.9006C315.835 28.6348 316.718 27.3102 317.517 25.9346C317.821 25.5512 320.227 19.7873 321.721 22.1537C321.324 21.5191 322.329 27.1773 321.787 27.0716C322.421 27.2038 328.132 28.1688 327.908 25.5116C328.027 26.8336 321.998 21.1093 322.104 21.1886C320.227 19.6551 317.424 19.4039 316.089 19.0734C316.869 19.2585 314.846 16.5616 313.881 16.2444C312.48 15.7817 314.198 21.2283 314.291 20.792C315.613 15.1868 310.391 19.589 310.431 19.5758C309.959 19.0812 309.436 18.6381 308.871 18.2538C309.314 17.9982 309.79 17.8026 310.285 17.6721C309.849 17.844 300.635 18.2009 307.099 19.6948Z" stroke="#808080" stroke-miterlimit="10"/>
<path d="M305.566 23.013C305.928 23.3566 306.327 23.6581 306.756 23.912C306.201 23.912 305.593 21.0432 304.509 21.3737C304.444 21.7301 304.517 22.0978 304.714 22.4021C304.91 22.7065 305.215 22.9249 305.566 23.013V23.013Z" stroke="#808080" stroke-miterlimit="10"/>
<path d="M605.925 74.9941C605.163 74.9447 604.413 75.1963 603.836 75.6947C604.166 76.1045 609.018 77.2415 609.018 76.1442C608.159 75.401 607.061 74.9926 605.925 74.9941Z" stroke="#808080" stroke-miterlimit="10"/>
<path d="M523.63 126.512C523.379 124.847 519.664 131.985 521.528 130.954C521.198 131.139 523.088 129.897 523.035 130.174C522.718 129.712 522.387 129.249 522.044 128.852C522.044 129.249 532.805 129.156 532.263 124.477C532.554 127.015 523.26 122.811 524.331 122.084C524.437 121.991 523.63 126.248 523.63 126.512Z" stroke="#808080" stroke-miterlimit="10"/>
<path d="M503.721 149.542C504.25 150.612 504.752 148.048 505.043 149.33C505.043 149.515 504.329 153.375 505.572 153.098C506.589 152.873 508.427 149.198 506.894 148.537C506.444 148.392 502.372 146.832 503.721 149.542Z" stroke="#808080" stroke-miterlimit="10"/>
<path d="M509.657 149.105C510.027 147.479 512.301 149.409 512.301 146.858C512.301 145.536 509.657 146.858 509.524 147.096C509.088 147.902 509.286 150.692 509.657 149.105Z" stroke="#808080" stroke-miterlimit="10"/>
<path d="M513.345 143.579C513.345 143.579 505.122 143.95 505.757 146.832C505.836 147.202 512.684 146.184 513.173 146.078C511.639 146.435 514.64 147.162 514.997 147.136C516.161 147.043 515.275 145.443 515.486 145.311C516.808 144.505 520.774 146.025 522.096 144.188C523.154 142.747 525.56 132.832 523.696 131.761C521.356 130.439 520.193 137.948 519.096 139.481C518.21 140.697 513.596 141.028 513.345 143.579Z" stroke="#808080" stroke-miterlimit="10"/>
<path d="M470.895 177.542C471.244 176.835 471.544 176.107 471.794 175.36C471.596 174.607 467.366 175.175 468.225 176.801C468.317 177 470.75 180.305 470.895 177.542Z" stroke="#808080" stroke-miterlimit="10"/>
<path d="M488.399 170.932C489.218 170.31 491.148 166.133 490.501 165.181C488.332 162.021 486.614 172.346 488.399 170.932Z" stroke="#808080" stroke-miterlimit="10"/>
<path d="M486.853 182.354C485.702 186.161 497.997 191.251 495.459 194.172C499.544 189.479 490.766 187.562 489.867 185.421C488.968 183.279 493.026 180.212 489.867 178.374C487.752 177.118 486.905 182.195 486.853 182.354Z" stroke="#808080" stroke-miterlimit="10"/>
<path d="M484.71 194.278C483.82 195.165 483.095 196.204 482.569 197.345C482.357 196.935 486.892 194.08 486.059 192.255C485.697 192.471 485.388 192.764 485.155 193.114C484.922 193.464 484.77 193.862 484.71 194.278V194.278Z" stroke="#808080" stroke-miterlimit="10"/>
<path d="M487.804 187.932C487.949 188.699 488.306 190.286 489.403 189.902C490.501 189.519 487.698 187.39 487.804 187.932Z" stroke="#808080" stroke-miterlimit="10"/>
<path d="M494.837 194.503C494.44 193.961 493.449 194.966 493.594 195.375C493.739 195.785 495.233 194.992 494.837 194.503Z" stroke="#808080" stroke-miterlimit="10"/>
<path d="M496.49 195.428C496.49 195.428 489.219 200.148 490.448 200.029C491.678 199.91 492.18 198.191 493.436 199.077C494.692 199.963 493.925 202.818 496.331 202.818C494.533 202.818 498.248 198.971 498.076 199.645C498.258 198.864 498.204 198.047 497.922 197.296C497.64 196.546 497.141 195.896 496.49 195.428V195.428Z" stroke="#808080" stroke-miterlimit="10"/>
<path d="M490.501 190.722C490.187 191.073 490.022 191.533 490.039 192.003C490.057 192.474 490.255 192.919 490.593 193.247C493.727 192.56 489.496 195.627 491.915 196.195C493.991 196.697 494.136 189.929 490.501 190.722Z" stroke="#808080" stroke-miterlimit="10"/>
<path d="M540.882 222.172C540.882 224.34 535.316 222.992 535.237 223.653C534.933 226.799 543.804 223.759 541.979 221.472C541.371 221.287 541.001 221.511 540.882 222.172Z" stroke="#808080" stroke-miterlimit="10"/>
<path d="M543.13 221.961C544.623 221.525 541.966 219.634 541.649 219.555C542.138 219.661 542.64 222.093 543.13 221.961Z" stroke="#808080" stroke-miterlimit="10"/>
<path d="M533.545 225.781C534.867 225.874 529.249 221.101 527.953 220.361C525.045 218.709 519.4 216.144 516.491 216.316C515.645 216.316 514.469 218.96 513.438 218.775C511.362 218.391 512.552 216.131 511.071 215.562C509.749 215.047 509.749 213.632 507.515 213.963C507.132 214.029 504.964 215.734 505.73 215.906C506.153 215.999 510.542 218.444 510.569 217.691C510.569 218.034 507.925 218.021 507.634 218.061C506.418 218.286 512.208 221.128 512.578 221.3C515.13 222.542 516.98 222.278 518.461 224.882C519.942 227.487 516.386 227.341 516.98 228.518C518.078 230.673 526.142 228.769 527.001 228.782C529.354 228.782 529.315 228.703 532.289 230.17C532.21 230.17 539.521 233.819 538.741 232.524C538.384 232.008 532.078 225.702 533.545 225.781Z" stroke="#808080" stroke-miterlimit="10"/>
<path d="M421.611 194.886C420.527 195.018 420.501 201.324 421.757 201.827C425.26 203.254 424.48 194.542 421.611 194.886Z" stroke="#808080" stroke-miterlimit="10"/>
<path d="M368.586 235.247C368.586 235.313 366.246 239.332 365.85 239.742C364.792 240.799 362.016 241.447 361.183 242.386C358.883 245.03 360.429 246.233 360.033 250.146C359.742 252.909 356.49 264.067 363.999 260.431C368.295 258.342 367.409 246.061 369.022 242.029C369.234 241.5 370.344 243.219 370.344 240.984C370.344 238.75 369.075 237.19 368.586 235.247Z" stroke="#808080" stroke-miterlimit="10"/>
<path d="M375.91 189.559C376.465 190.193 377.563 189.453 377.629 189.202C377.695 188.95 375.275 188.845 375.91 189.559Z" stroke="#808080" stroke-miterlimit="10"/>
<path d="M554.578 230.831C554.724 231.651 555.9 232.154 556.297 231.863C556.693 231.572 554.42 229.985 554.578 230.831Z" stroke="#808080" stroke-miterlimit="10"/>
<path d="M549.264 225.781C549.264 225.993 550.414 227.262 550.678 227.103C550.943 226.945 549.33 225.398 549.264 225.781Z" stroke="#808080" stroke-miterlimit="10"/>
<path d="M554.869 229.073C555.279 228.782 552.555 227.143 552.516 227.672C552.476 228.201 554.459 229.364 554.869 229.073Z" stroke="#808080" stroke-miterlimit="10"/>
<path d="M546.104 223.494C546.011 223.983 547.611 226.588 548.206 226.138C549.264 225.398 546.17 223.005 546.104 223.494Z" stroke="#808080" stroke-miterlimit="10"/>
<path d="M556.337 228.994C555.953 229.893 557.447 231.453 557.658 231.492C557.87 231.532 556.68 228.293 556.337 228.994Z" stroke="#808080" stroke-miterlimit="10"/>
<path d="M557.645 232.643C557.645 232.841 558.689 233.832 559.179 233.462C559.668 233.092 557.513 232.286 557.645 232.643Z" stroke="#808080" stroke-miterlimit="10"/>
<path d="M504.184 235.26C504.554 235.591 506.418 235.181 506.352 234.692C506.286 234.203 503.615 234.771 504.184 235.26Z" stroke="#808080" stroke-miterlimit="10"/>
<path d="M543.831 266.816C543.831 266.816 542.932 261.396 543.394 261.608C540.208 260.114 535.568 253.477 533.268 249.974C531.536 247.33 531.007 244.514 529.619 241.222C528.905 239.517 527.424 240.799 526.975 239.689C526.235 238.063 526.975 234.665 525.375 233.171C524.159 232.035 523.511 241.302 523.498 241.341C521.806 246.153 522.811 246.233 518.475 244.699C517.232 244.25 513.491 242.333 513.187 240.733C512.909 239.345 516.174 237.005 515.738 236.133C516.069 236.794 507.885 233.806 507.713 233.885C507.502 234.414 507.713 234.824 508.348 235.115C506.101 232.471 502.399 241.883 503.51 241.725C504.038 241.659 500.165 241.117 501.236 241.725C498.459 240.112 498.882 238.512 495.564 240.892C493.409 242.452 494.176 244.541 492.92 245.929C492.59 246.299 492.365 244.038 491.849 244.382C490.065 245.585 491.453 247.132 489.84 248.454C487.844 250.08 486.839 250.186 484.645 251.283C481.763 252.697 479.714 253.134 477.215 255.487C477.091 255.325 477.01 255.136 476.978 254.935C476.945 254.734 476.963 254.529 477.03 254.337C477.03 254.932 476.316 256.796 476.237 257.787C476.157 258.779 477.188 262.612 476.911 263.194C476.475 263.011 476.118 262.678 475.906 262.255C476.109 262.68 476.272 263.123 476.395 263.577C475.985 263.26 475.589 262.93 475.192 262.599C474.716 263.789 478.312 270.121 478.656 271.536C478.828 272.263 478.788 279.111 478.484 278.476C480.784 283.196 484.116 279.97 487.923 278.846C491.043 277.934 493.052 277.273 496.067 276.136C498.393 275.264 503.338 273.492 505.876 273.915C507.436 274.167 515.236 280.274 513.451 281.081C513.993 280.843 517.205 276.85 517.417 277.035C518.422 277.974 515.791 280.512 515.659 281.094C515.183 283.381 518.303 279.296 517.457 279.957C518.58 279.058 518.052 282.746 517.946 282.456C517.84 282.165 521.634 287.334 521.991 287.625C524.133 289.475 529.46 287.757 529.407 287.73C529.487 288.141 529.487 288.563 529.407 288.973C528.918 288.365 531.179 289.727 531.721 290.295C530.624 289.251 537.987 286.95 537.776 287.188C538.899 285.866 539.547 280.063 540.42 278.172C540.962 276.626 543.183 267.345 543.831 266.816Z" stroke="#808080" stroke-miterlimit="10"/>
<path d="M514.773 283.262C515.183 283.672 516.558 283.553 516.782 282.971C517.007 282.389 514.376 282.892 514.773 283.262Z" stroke="#808080" stroke-miterlimit="10"/>
<path d="M531.681 294.671C530.689 294.475 529.722 294.169 528.799 293.759C529.301 293.613 528.891 301.506 533.109 299.285C535.237 298.108 536.057 294.142 531.681 294.671Z" stroke="#808080" stroke-miterlimit="10"/>
<path d="M567.891 308.446C568.155 308.525 569.014 308.287 568.525 307.626C568.036 306.965 567.256 308.261 567.891 308.446Z" stroke="#808080" stroke-miterlimit="10"/>
<path d="M584.799 287.691C583.794 289.528 581.6 284.928 581.402 284.941C581.304 285.095 581.252 285.274 581.252 285.456C581.252 285.639 581.304 285.818 581.402 285.972C581.573 285.708 578.083 280.962 577.356 280.962C577.277 280.962 579.868 286.091 580.093 286.726C580.873 288.999 578.308 288.907 578.401 290.15C578.401 290.057 580.265 295.438 580.159 295.319C582.301 299.338 586.861 283.91 584.799 287.691Z" stroke="#808080" stroke-miterlimit="10"/>
<path d="M578.705 294.301C576.603 292.661 563.965 303.951 567.785 306.516C571.606 309.081 580.476 295.728 578.705 294.301Z" stroke="#808080" stroke-miterlimit="10"/>
<path d="M587.007 245.228C587.417 245.4 588.765 244.911 588.765 244.21C588.765 243.509 586.385 245.03 587.007 245.228Z" stroke="#808080" stroke-miterlimit="10"/>
<path d="M584.693 247.449C585.328 248.11 586.597 248.057 586.636 246.88C586.676 245.704 584.125 246.867 584.693 247.449Z" stroke="#808080" stroke-miterlimit="10"/>
<path d="M367.832 14.658C367.203 14.7919 366.642 15.1429 366.246 15.6495C366.946 17.183 373.411 14.1028 373.437 13.6665C373.543 11.6306 368.215 14.0763 367.832 14.658Z" stroke="#808080" stroke-miterlimit="10"/>
<path d="M377.166 15.5305C377.166 14.658 374.522 15.623 375.077 15.8081C375.632 15.9932 377.166 16.403 377.166 15.5305Z" stroke="#808080" stroke-miterlimit="10"/>
<path d="M365.44 14.2217C366.333 13.8188 367.302 13.6114 368.282 13.6136C368.613 12.7147 362.518 13.6136 362.703 14.116C362.868 14.3151 363.073 14.4772 363.305 14.5917C363.537 14.7062 363.79 14.7705 364.048 14.7805C364.306 14.7905 364.564 14.7459 364.804 14.6496C365.043 14.5533 365.26 14.4075 365.44 14.2217V14.2217Z" stroke="#808080" stroke-miterlimit="10"/>
<path d="M367.991 57.9271C369.446 59.3945 370.331 57.266 371.085 56.9488C372.116 56.5389 365.308 55.2037 367.991 57.9271Z" stroke="#808080" stroke-miterlimit="10"/>
<path d="M378.712 41.4021C376.675 43.385 374.776 45.5052 373.028 47.7477C373.028 47.9063 375.91 50.3123 375.672 50.3917C375.421 49.8761 375.513 49.4927 375.949 49.2547C375.685 49.2547 383.168 55.521 383.498 51.8987C383.591 50.9337 380.206 48.8581 380.061 47.5097C379.915 46.1613 381.383 44.7732 381.951 43.5437C382.874 41.9015 384.017 40.3936 385.349 39.0621C387.57 37.013 403.672 30.2576 402.958 29.6495C401.239 28.1821 386.882 32.8752 384.556 34.3294C383.3 35.2019 378.752 41.4021 378.712 41.4021Z" stroke="#808080" stroke-miterlimit="10"/>
<path d="M536.189 37.9648C536.886 38.1501 537.616 38.1664 538.319 38.0123C539.023 37.8583 539.68 37.5383 540.235 37.0791C540.578 33.3114 523.961 37.0791 536.189 37.9648Z" stroke="#808080" stroke-miterlimit="10"/>
<path d="M523.418 39.8685C523.418 39.0488 520.774 40.1726 521.832 40.5824C522.427 40.8071 523.418 40.6882 523.418 39.8685Z" stroke="#808080" stroke-miterlimit="10"/>
<path d="M452.639 25.2208C453.643 25.8421 462.607 24.3482 462.911 22.5767C463.215 20.8053 457.715 20.3029 457.887 21.6778C456.896 13.878 453.934 26.0272 452.639 25.2208Z" stroke="#808080" stroke-miterlimit="10"/>
<path d="M444.905 17.5003C444.409 17.9584 444.017 18.5174 443.755 19.1396C446.267 21.5456 452.388 23.3964 452.916 19.1396C453.366 15.5305 444.905 16.522 444.905 17.5003Z" stroke="#808080" stroke-miterlimit="10"/>
<path d="M442.261 15.9667C443.887 16.7203 440.833 16.7996 440.648 16.9054C439.776 17.3416 443.887 17.1037 444.614 16.7996C445.341 16.4955 450.801 14.8959 449.796 13.6665C445.764 8.59 441.481 15.6098 442.261 15.9667Z" stroke="#808080" stroke-miterlimit="10"/>
<path d="M474.187 38.8903C473.037 41.4153 476.21 39.6438 476.236 39.2208C476.139 39.0463 476.004 38.896 475.84 38.7814C475.676 38.6668 475.489 38.5907 475.292 38.5589C475.095 38.5271 474.893 38.5404 474.701 38.5978C474.51 38.6552 474.334 38.7552 474.187 38.8903V38.8903Z" stroke="#808080" stroke-miterlimit="10"/>
<path d="M378.316 13.5078C379.122 14.4068 383.987 14.4993 384.199 12.9129C384.265 12.3709 380.154 11.5909 379.902 11.6835C380.603 11.5777 378.752 13.9838 378.316 13.5078Z" stroke="#808080" stroke-miterlimit="10"/>
<path d="M440.965 12.0933C441.164 11.2737 437.859 11.6306 438.718 12.4106C439.022 12.6882 440.767 12.913 440.965 12.0933Z" stroke="#808080" stroke-miterlimit="10"/>
<path d="M590.166 51.6872C590.391 51.859 594.793 51.555 593.921 50.5238C591.858 48.0517 587.443 51.5682 587.773 51.7401C588.567 51.7004 589.36 51.6872 590.166 51.6872Z" stroke="#808080" stroke-miterlimit="10"/>
<path d="M517.02 36.4842C518.644 37.4946 520.578 37.8843 522.467 37.5814C523.789 37.3303 527.239 35.2944 525.93 34.8317C526.552 35.0564 528.376 39.2207 529.447 35.995C530.346 33.351 527.808 33.9592 525.481 33.2056C525.283 33.1395 521.184 33.0338 521.158 33.0338C521.779 32.9148 513.147 34.3822 517.02 36.4842Z" stroke="#808080" stroke-miterlimit="10"/>
<path d="M527.411 43.4776C530.055 42.843 520.563 39.6702 522.427 42.6051C523.022 43.5569 526.525 43.7023 527.411 43.4776Z" stroke="#808080" stroke-miterlimit="10"/>
<path d="M603.083 68.8864L604.973 69.3227C605.462 69.3227 604.352 68.6749 604.497 68.5824C603.929 68.9393 607.842 67.5909 606.943 67.2604C607.009 67.2604 599.275 62.6598 599.169 64.2594C599.288 62.4747 599.949 67.1414 599.685 66.2821C598.257 61.5625 588.607 56.3935 583.2 55.2302C580.199 54.5824 575.083 54.6881 573.258 55.5342C573.404 55.4549 574.488 57.8477 573.007 58.7599C572.32 59.1829 569.041 56.301 569.808 55.944C570.575 55.5871 571.54 57.1999 571.738 55.6664C571.883 54.4237 565.406 56.1688 564.467 56.301C562.892 56.2857 561.32 56.1665 559.761 55.944C557.712 55.7457 558.809 57.5569 557.963 57.9667C558.69 57.623 555.319 54.7146 555.319 54.741C552.371 52.2424 552.794 51.7797 547.307 51.3567C545.628 51.2245 537.419 51.3567 536.586 48.8581C536.348 48.1178 539.085 49.0035 538.357 47.7873C536.745 45.1433 530.201 48.1707 530.121 48.4483C530.582 48.1794 531.024 47.879 531.443 47.5493C530.843 47.2574 530.208 47.0441 529.553 46.9148C528.984 45.9894 532.197 46.9148 532.197 46.4256C532.673 43.5966 518.541 45.2623 519.929 47.1924C520.134 47.2958 520.36 47.3497 520.59 47.3497C520.819 47.3497 521.046 47.2958 521.251 47.1924C520.352 46.69 521.409 50.6164 521.317 49.4266C521.317 49.6513 518.104 49.0564 517.576 49.4266C517.85 49.7031 518.178 49.9193 518.541 50.0611C518.541 50.0611 509.617 48.369 509.009 48.2236C508.401 48.0781 507.383 51.9516 506.035 51.8723C504.025 51.7533 502.492 46.9677 501.474 47.0338C502.036 47.3095 502.66 47.4326 503.285 47.3907C505.836 45.8968 496.926 40.6088 495.022 41.0054C493.634 41.2963 493.343 44.2708 492.841 44.3501C492.087 44.4823 484.909 44.1782 484.711 43.3454C484.578 42.8959 485.676 42.3407 485.213 42.2217C481.511 41.2566 478.603 42.9884 476.303 43.2132C475.695 43.2132 476.422 41.0583 475.523 40.8997C475.087 40.8204 469.058 40.8997 469.6 41.5739C469.931 41.6929 470.274 41.7854 470.618 41.878C470.711 42.6712 463.07 43.8874 462.911 44.3104C464.55 40.0933 476.911 39.0224 475.906 34.5673C475.602 33.2453 476.422 32.148 473.685 30.8393C470.195 29.2 467.564 31.8175 464.431 31.0376C464.765 30.4171 465.173 29.84 465.647 29.319C465.647 29.6627 461.272 28.4729 460.73 28.6976C461.1 28.539 463.744 28.1027 463.162 27.1905C461.166 24.1499 456.552 28.0234 454.886 29.2396C455.746 28.6183 451.674 34.0121 451.528 31.4738C451.863 31.8219 452.23 32.1363 452.626 32.4124C452.811 31.8308 447.946 32.9148 447.695 32.8223C447.84 32.4653 447.999 32.1216 448.171 31.7779C446.33 31.9768 444.508 32.3261 442.724 32.8223C442.961 33.197 443.328 33.4703 443.755 33.589C443.676 32.9677 435.612 35.7307 435.017 36.0083C433.113 36.894 434.091 36.8147 433.272 37.912C432.796 37.912 432.307 37.912 431.831 37.8194C431.659 38.0045 433.483 38.8638 433.496 39.0224C433.059 39.0894 432.617 39.1204 432.174 39.115C432.174 39.115 434.184 40.3048 433.272 41.1376C432.73 41.6268 429.597 41.3624 428.698 41.5475C416.165 44.1915 428.698 45.0375 426.265 48.3558C425.3 49.6778 419.034 44.2179 417.196 46.0423C417.038 46.2009 419.219 47.7212 418.73 47.8534C417.778 48.1178 416.324 46.7297 415.636 48.0517C415.094 49.1093 420.065 50.7882 419.682 51.2509C419.682 51.2509 414.394 50.1537 414.394 50.0744C413.349 48.8846 416.191 45.487 413.97 44.7864C411.75 44.0857 410.441 54.7675 411.326 55.9837C413.719 59.2358 418.188 57.5172 419.695 62.4747C420.488 65.1187 415.107 58.7995 417.447 59.8307C415.848 59.1433 416.363 57.7552 414.248 58.1253C411.234 58.6409 414.103 60.3595 412.926 61.7873C411.604 63.4662 409.819 65.8987 407.982 66.3085C407.479 66.4275 402.971 66.1895 403.381 64.9865C403.315 65.1452 409.33 64.3784 410.335 61.0205C410.97 58.8921 409.912 57.1867 409.449 54.7542C409.317 54.0536 409.648 46.7165 409.7 46.8222C406.144 40.9658 400.222 47.6419 399.918 51.793C399.997 50.6428 399.785 56.1027 399.521 55.4152C399.521 55.4152 405.946 59.5399 402.165 60.148C399.521 60.5975 388.945 51.2642 385.68 53.1282C386.539 52.639 391.417 61.5097 386.711 59.606C384.86 58.8524 386.777 58.6806 382.52 59.0639C382.52 59.0639 375.712 60.2009 376.241 59.7778C376.769 59.3548 377.708 58.9185 377.563 57.8609C377.563 58.5352 368.666 61.4436 367.423 61.9856C365.691 62.7391 366.101 65.9516 362.902 63.8232C359.702 61.6947 364.501 61.7873 364.898 61.3246C366.339 59.5928 359.028 57.7155 359.293 58.8128C359.293 58.5087 361.011 64.2991 359.636 63.2944C363.06 65.7665 359.094 65.5285 358.87 65.7004C354.904 68.8732 354.904 65.4492 354.124 71.1206C353.991 72.0724 350.845 70.1555 350.356 70.5389C349.708 70.1291 349.034 69.7061 348.439 69.283C347.276 69.825 347.117 70.5257 347.91 71.3982C349.827 70.3142 350.448 75.5625 347.104 72.9185C346.284 72.2707 341.75 62.3425 339.899 63.215C341.221 62.5805 359.993 71.5172 354.243 61.2188C353.145 59.2358 341.446 54.2915 340.454 55.5342C340.898 55.4959 341.326 55.3459 341.697 55.0979C341.538 53.7759 338.669 55.098 338.352 54.7939C337.572 53.9346 335.708 55.8647 335.14 53.7495C335.245 54.1593 338.18 53.3661 338.26 52.9563C338.881 49.5323 332.866 52.5862 333.606 52.6126C333.011 52.6126 333.923 50.7618 333.87 50.6693C332.654 48.3293 331.623 52.6523 330.949 52.6523C330.711 52.6523 331.108 50.6032 330.684 50.8808C329.878 51.7401 329.085 52.6126 328.278 53.5248C327.406 53.6966 329.984 50.6957 329.971 50.6296C329.719 49.0696 327.049 52.0574 327.062 52.0574C327.895 51.3435 323.704 54.4369 324.934 54.0668C323.321 54.5559 325.357 50.4313 325.555 51.1981C325.661 51.555 323.109 51.4889 323.149 52.097C323.511 52.4568 323.755 52.9177 323.85 53.419C323.224 53.2851 322.58 53.2627 321.946 53.3529C322.162 53.7512 322.494 54.0741 322.898 54.2783C322.116 54.149 321.361 53.8899 320.664 53.5116C320.769 53.5116 321.378 55.7986 320.664 55.3624C319.421 54.5427 319.685 53.2207 318.02 53.9743C317.888 53.9743 314.397 56.6183 314.464 57.0149C314.53 57.4115 316.169 56.6711 315.905 58.0592C315.905 58.0592 312.956 58.0592 313.062 58.1914C313.181 57.6759 313.313 57.1735 313.472 56.6579C311.877 58.2306 310.2 59.7177 308.448 61.1131C309.77 61.1131 312.718 57.8609 314.12 59.1565C314.12 59.1565 313.908 60.5843 313.882 60.5975C309.916 62.1839 308.805 68.622 305.143 70.2216C304.826 70.3671 306.637 71.5436 306.029 71.808C303.94 72.6145 303.927 73.4209 302.195 74.8486C302.063 74.9544 300.873 73.3283 300.794 74.3463C300.596 76.435 299.565 74.8222 298.52 76.3822C298.61 76.5613 298.737 76.7197 298.892 76.8472C299.046 76.9747 299.226 77.0684 299.419 77.1225C298.309 74.6636 295.453 81.0885 295.559 80.5861C294.924 84.4728 297.463 83.2301 297.661 83.8514C298.229 85.8477 295.347 84.909 295.48 84.8033C295.338 85.3766 295.241 85.96 295.189 86.5483C295.189 87.2754 296.736 85.7551 297.026 86.5483C297.225 87.0771 296.061 87.6324 295.903 87.8703C293.946 90.8581 302.513 88.5445 301.495 88.7693C302.817 88.4652 303.597 86.2839 304.39 85.8212C304.866 85.5304 308.567 97.0847 308.938 97.2169C310.683 97.8779 314.318 92.5766 314.9 92.4048C314.662 93.0129 314.358 93.1583 313.974 92.8411C314.318 89.7344 318.033 87.2754 317.94 84.9091C317.94 81.8156 314.437 83.283 315.574 78.7353C316.222 76.0913 318.218 75.8666 319.54 74.0026C320.611 72.4823 322.369 68.0932 324.392 67.3926C333.791 64.2859 322.21 75.2452 321.92 75.8005C321.193 77.1225 321.721 82.4898 322.369 83.1376C325.013 85.7816 329.971 83.825 332.839 83.045C333.079 82.6504 333.349 82.2747 333.646 81.9213C333.346 82.2724 333.076 82.6483 332.839 83.045C334.023 83.1845 335.146 83.6413 336.091 84.367C336.726 85.1074 328.027 86.0592 328.411 85.8741C322.832 88.5181 328.212 88.4388 326.811 90.0516C325.145 92.6956 324.802 90.6862 324.167 91.2547C323.942 91.453 319.804 91.757 321.338 94.8505C322.832 98.2084 319.871 99.028 318.006 99.7022C318.165 99.7022 313.142 100.191 311.939 100.35C309.295 100.667 310.696 101.037 309.427 99.2131C308.885 98.4463 305.818 101.328 305.249 100.905C305.137 100.494 305.137 100.06 305.249 99.6494C304.522 99.4511 302.314 99.6493 302.605 97.7324C302.605 97.3887 304.522 98.7504 304.681 97.9043C304.972 96.3047 303.769 97.3623 303.359 96.5823C303.134 96.2254 305.421 92.3651 304.231 91.0564C303.425 90.1706 302.09 93.1848 302.09 93.1848C301.23 94.0441 300.397 92.5106 300.265 96.0932C300.265 97.2433 302.473 99.8609 301.905 100.985C301.482 101.844 296.683 102.73 295.784 103.311C294.172 104.701 292.666 106.208 291.276 107.819C290.353 108.924 289.33 109.942 288.222 110.86C286.9 111.481 284.018 111.124 283.582 111.376C282.59 111.931 284.494 113.438 283.582 114.191C282.669 114.945 280.052 112.605 279.444 113.755C277.778 116.835 280.263 114.495 281.731 116.835C283.74 120.048 286.86 123.882 282.194 126.248C280.025 127.358 274.711 124.503 272.94 125.455C269.621 127.266 272.212 127.107 271.499 130.188C270.044 136.467 270.177 139.098 275.346 140.764C278.955 141.94 282.775 141.2 285.776 137.181C288.156 133.982 289.584 128.429 293.219 126.169C292.399 126.684 300.82 125.217 300.12 125.19C303.729 125.375 301.442 124.86 304.562 127.253C304.469 127.173 316.46 138.172 313.075 138.172C314.992 138.172 314.397 133.321 314.53 133.202C314.921 133.133 315.323 133.164 315.7 133.291C316.076 133.418 316.415 133.637 316.684 133.929C315.362 133.532 303.465 120.709 309.281 121.026C310.075 121.026 316.328 128.138 318.324 129.262C318.349 129.105 318.389 128.95 318.443 128.799C318.389 128.95 318.349 129.105 318.324 129.262C316.367 128.112 323.546 140.195 323.546 137.379C323.546 134.894 320.307 143.54 324.537 141.213C324.546 140.58 324.448 139.949 324.246 139.349C324.627 139.454 325.029 139.454 325.41 139.349C326.031 138.582 324.088 138.688 324.511 138.291C324.934 137.895 326.93 139.032 326.639 137.419C326.295 135.462 325.238 137.419 324.511 136.639C324.749 136.903 324.207 132.673 323.863 132.884C324.533 133.076 325.219 133.209 325.912 133.281C327.036 132.779 333.038 132.818 334.492 131.364C334.108 131.748 332.086 128.152 332.218 127.398C333.005 125.783 333.972 124.262 335.1 122.864C335.787 121.885 336.105 119.638 337.532 118.977C338.431 118.554 342.45 118.713 342.675 119.929C341.995 120.477 341.237 120.923 340.428 121.251C340.348 120.828 342.252 123.578 342.199 123.525C342.146 123.472 347.368 122.203 347.487 122.044C347.791 121.515 342.781 121.806 345.187 119.228C345.755 118.633 351.387 116.584 351.797 117.391C351.889 117.589 347.831 121.357 347.976 122.07C348.505 124.595 356.239 125.97 355.988 128.68C355.644 132.409 351.202 131.1 348.598 131.047C347.487 131.047 346.601 129.791 345.517 129.725C341.961 129.5 339.872 130.32 336.514 131.258C332.205 132.461 327.432 134.696 332.43 139.785C334.769 142.178 337.057 141.107 339.701 141.213C340.573 141.213 345.887 140.063 346.601 140.526C347.315 140.988 345.055 147.281 344.777 147.955L345.663 148.365C345.663 148.537 345.663 148.735 345.597 148.907C345.597 148.735 345.597 148.537 345.663 148.365L344.803 147.968C342.159 154.169 337.136 152.9 330.592 151.67C328.86 151.353 327.459 150.52 325.727 150.282C322.924 149.899 324.405 147.638 320.677 149.555C319.447 150.203 319.791 152.688 319.659 152.741C317.451 153.613 307.933 150.374 305.474 147.849C303.015 145.324 307.179 143.17 305.315 140.539C304.178 138.939 296.431 140.38 294.237 140.618C291.533 141.064 288.877 141.763 286.305 142.707C283.595 143.474 281.4 143.249 278.875 143.91C276.734 144.478 277.553 143.579 275.716 144.584C277.699 143.527 271.446 149.238 272.212 148.008C271.261 149.528 270.52 151.207 269.568 152.741C268.881 153.931 269.066 155.491 267.929 157.196C267.189 158.32 265.682 158.518 264.849 159.364C262.522 161.953 260.666 164.928 259.363 168.155C257.908 171.844 258.768 172.439 258.649 175.664C258.53 178.665 257.591 181.865 257.684 184.826C257.789 188.078 259.257 189.387 260.843 191.951C264.413 197.755 268.643 203.122 275.491 203.849C279.125 203.985 282.754 203.479 286.212 202.356C286.662 202.237 291.249 199.712 291.725 200.28C292.984 201.042 294.282 201.739 295.612 202.369C296.22 202.66 295.982 204.127 296.762 204.484C297.542 204.841 298.414 203.651 299.062 204.061C302.698 206.348 301.296 204.365 303.147 208.556C303.504 209.481 302.433 212.442 302.447 212.905C302.526 216.673 303.94 217.228 306.135 221.049C307.946 224.182 310.246 230.303 309.757 233.938C309.228 237.785 306.413 241.117 306.241 245.334C305.95 248.163 309.982 254.826 310.603 257.787C311.727 263.075 313.353 266.314 315.125 271.337C317.531 278.172 315.468 279.653 323.057 278.701C330.433 277.802 334.624 275.489 338.484 268.125C339.086 266.204 339.528 264.236 339.806 262.242C342.45 258.435 344.01 260.51 344.737 255.54C345.253 252.01 343.045 252.023 344.962 248.639C346.496 245.915 350.713 245.506 352.352 243.06C355.736 237.97 352.22 232.352 351.255 227.196C350.21 221.683 353.026 217.704 356.82 213.606C358.38 211.9 377.06 192.216 371.257 190.074C367.291 188.58 362.809 194.305 358.235 191.396" stroke="#808080" stroke-miterlimit="10"/>
<path d="M392.131 13.7855C393.651 11.6438 385.521 12.8204 387.345 14.4332C388.218 15.2 391.43 14.7637 392.131 13.7855Z" stroke="#808080" stroke-miterlimit="10"/>
<path d="M383.604 14.8166C382.837 15.1471 382.07 15.4248 381.29 15.6892C380.272 16.8261 386.446 16.641 386.843 15.319C387.094 14.5126 383.498 14.6051 383.604 14.8166Z" stroke="#808080" stroke-miterlimit="10"/>
<path d="M383.353 11.8686C384.43 11.5991 385.47 11.1949 386.446 10.6655C385.798 9.7798 381.251 11.5116 381.158 11.2076C381.451 11.4753 381.8 11.6738 382.18 11.7882C382.56 11.9026 382.961 11.9301 383.353 11.8686V11.8686Z" stroke="#808080" stroke-miterlimit="10"/>
<path d="M525.124 108.137C526.181 110.781 523.022 118.329 524.674 120.444C523.551 119.003 527.186 120.59 527.213 120.603C527.239 120.616 525.758 116.254 525.891 116.069C527.213 113.121 528.535 114.495 528.984 113.914C529.777 112.843 525.111 100.958 525.772 100.535C523.894 101.738 524.555 106.762 525.124 108.137Z" stroke="#808080" stroke-miterlimit="10"/>
<path d="M405.404 43.927C406.334 44.0085 407.265 43.7758 408.048 43.2661C409.079 41.1905 403.157 43.5437 405.404 43.927Z" stroke="#808080" stroke-miterlimit="10"/>
<path d="M421.268 44.1386C421.162 43.2661 419.337 44.3898 419.946 44.7467C420.554 45.1036 421.36 45.0111 421.268 44.1386Z" stroke="#808080" stroke-miterlimit="10"/>
<path d="M395.78 13.5079L397.287 12.7147C397.776 11.0357 392.792 13.1113 392.977 13.3492C393.861 13.742 394.858 13.7984 395.78 13.5079V13.5079Z" stroke="#808080" stroke-miterlimit="10"/>
<path d="M562.074 251.838C562.18 252.499 566.37 256.002 566.965 255.566C567.56 255.13 561.968 251.217 562.074 251.838Z" stroke="#808080" stroke-miterlimit="10"/>
<path d="M153.867 164.956C152.928 163.185 154.078 168.459 154.501 167.481C154.23 166.656 154.018 165.812 153.867 164.956V164.956Z" stroke="#808080" stroke-miterlimit="10"/>
<path d="M181.457 193.948C182.699 194.225 183.109 193.802 182.66 192.705C181.774 191.885 181.047 193.538 181.457 193.948Z" stroke="#808080" stroke-miterlimit="10"/>
<path d="M467.048 218.405C467.048 217.916 465.726 218.153 466.163 218.841C466.599 219.528 467.048 218.894 467.048 218.405Z" stroke="#808080" stroke-miterlimit="10"/>
<path d="M477.36 228.954C478.011 229.135 478.695 229.157 479.356 229.02C480.242 228.28 474.558 227.302 474.716 227.381C474.766 226.981 474.972 226.618 475.289 226.37C475.606 226.122 476.009 226.01 476.408 226.059C474.928 227.05 461.985 222.701 462.845 225.768C463.175 227.064 476.779 229.827 477.36 228.954Z" stroke="#808080" stroke-miterlimit="10"/>
<path d="M492.696 229.02C494.018 229.02 494.163 228.848 493.238 228.465C492.577 228.359 486.39 229.02 486.509 229.285C487.315 231.043 491.572 229.086 492.696 229.02Z" stroke="#808080" stroke-miterlimit="10"/>
<path d="M482.648 228.359C482.172 229.536 481.009 227.949 480.401 228.756C479.158 230.422 484.671 230.382 485.147 229.232C485.438 228.571 482.886 227.817 482.648 228.359Z" stroke="#808080" stroke-miterlimit="10"/>
<path d="M468 211.848C471.768 215.695 469.93 219.013 476.143 219.343C481.312 219.608 481.603 215.496 484.961 211.292C484.736 211.57 482.74 206.85 482.767 206.414C482.872 204.405 485.252 204.696 485.662 203.36C486.072 202.025 480.863 201.073 480.585 201.139C478.906 201.51 479.753 204.471 476.871 204.246C476.778 204.246 471.807 209.944 471.794 209.984C472.164 209.098 465.382 209.164 468 211.848Z" stroke="#808080" stroke-miterlimit="10"/>
<path d="M448.276 210.367C448.17 210.909 448.725 212.495 449.32 211.847C449.915 211.2 448.395 209.825 448.276 210.367Z" stroke="#808080" stroke-miterlimit="10"/>
<path d="M450.749 215.073C450.643 215.338 451.198 216.395 451.542 216.104C451.886 215.814 451.053 214.201 450.749 215.073Z" stroke="#808080" stroke-miterlimit="10"/>
<path d="M463.162 221.141C463.016 218.841 464.312 219.449 464.299 217.968C464.299 217.321 462.197 215.324 462.157 216.554C462.56 216.951 462.915 217.395 463.214 217.876C462.778 218.973 457.662 211.173 457.398 210.882C456.208 209.56 445.87 201.628 445.407 202.66C445.077 203.426 453.339 215.324 454.436 216.831C455.534 218.339 463.638 228.439 463.162 221.141Z" stroke="#808080" stroke-miterlimit="10"/>
<path d="M488.254 232.008C488.254 230.527 485.305 231.321 485.16 231.083C485.015 230.845 488.254 233.33 488.254 232.008Z" stroke="#808080" stroke-miterlimit="10"/>
<path d="M484.909 217.863C484.671 218.299 488.055 223.243 486.654 223.825C487.976 223.283 486.799 217.797 488.095 218.431C490.554 219.634 487.831 223.032 491.122 220.467C489.377 221.789 491.215 211.425 492.55 214.359C492.722 214.756 485.107 216.752 487.011 213.645C489.087 210.248 493.714 214.135 495.538 210.367C494.441 212.641 489.906 209.865 488.399 210.883C486.046 212.469 486.218 215.536 484.909 217.863Z" stroke="#808080" stroke-miterlimit="10"/>
<path d="M500.627 219.119C502.067 219.658 503.554 220.061 505.069 220.322C506.92 220.322 499.728 216.144 500.627 219.119Z" stroke="#808080" stroke-miterlimit="10"/>
<path d="M500.879 210.525C500.879 206.85 497.825 214.425 500.628 213.87C502.478 213.5 500.879 210.459 500.879 210.525Z" stroke="#808080" stroke-miterlimit="10"/>
<path d="M495.26 231.03C496.119 229.893 499.001 229.708 499.384 228.637C499.596 228.002 494.956 230.051 494.519 230.104C493.845 230.21 491.875 231.651 493.197 232.352C493.631 232.35 494.055 232.224 494.42 231.99C494.786 231.756 495.077 231.423 495.26 231.03Z" stroke="#808080" stroke-miterlimit="10"/>
<path d="M497.19 219.224C497.402 220.097 498.843 220.546 499.239 219.832C499.636 219.119 496.952 218.206 497.19 219.224Z" stroke="#808080" stroke-miterlimit="10"/>
<path d="M300.45 131.933C299.988 132.792 301.032 137.71 302.949 135.29C304.522 133.294 301.653 129.659 300.45 131.933Z" stroke="#808080" stroke-miterlimit="10"/>
<path d="M311.317 137.802C311.674 137.723 307.483 137.432 307.853 138.543C308.932 139.535 310.175 140.332 311.528 140.896C311.847 139.882 312.227 138.889 312.665 137.921C312.49 137.747 312.259 137.64 312.013 137.618C311.766 137.596 311.52 137.661 311.317 137.802V137.802Z" stroke="#808080" stroke-miterlimit="10"/>
</svg>
